<?xml version="1.0" encoding="UTF-8" standalone="no"?>
<!-- Created with Inkscape (http://www.inkscape.org/) -->

<svg
   width="1.5882751mm"
   height="1.6538881mm"
   viewBox="0 0 1.5882751 1.6538881"
   version="1.1"
   id="svg1"
   xml:space="preserve"
   inkscape:version="1.3.2 (091e20e, 2023-11-25)"
   sodipodi:docname="mundane_systems_logos.svg"
   xmlns:inkscape="http://www.inkscape.org/namespaces/inkscape"
   xmlns:sodipodi="http://sodipodi.sourceforge.net/DTD/sodipodi-0.dtd"
   xmlns="http://www.w3.org/2000/svg"
   xmlns:svg="http://www.w3.org/2000/svg"><sodipodi:namedview
     id="namedview1"
     pagecolor="#ffffff"
     bordercolor="#000000"
     borderopacity="0.25"
     inkscape:showpageshadow="2"
     inkscape:pageopacity="0.0"
     inkscape:pagecheckerboard="0"
     inkscape:deskcolor="#d1d1d1"
     inkscape:document-units="mm"
     inkscape:zoom="19.321965"
     inkscape:cx="555.04188"
     inkscape:cy="789.72298"
     inkscape:window-width="1712"
     inkscape:window-height="981"
     inkscape:window-x="0"
     inkscape:window-y="44"
     inkscape:window-maximized="0"
     inkscape:current-layer="layer1"
     showgrid="false" /><defs
     id="defs1" /><g
     inkscape:label="Layer 1"
     inkscape:groupmode="layer"
     id="layer1"
     transform="translate(-147.25896,-203.76399)"><path
       style="fill:#1a1a1a;stroke:none;stroke-width:0.00679736;stroke-dasharray:none"
       id="path20-4-7-7-8-2-80"
       sodipodi:type="arc"
       sodipodi:cx="148.63205"
       sodipodi:cy="203.9819"
       sodipodi:rx="0.20887651"
       sodipodi:ry="0.21792629"
       sodipodi:start="3.2126732"
       sodipodi:end="3.2126625"
       sodipodi:open="true"
       sodipodi:arc-type="arc"
       d="m 148.4237,203.96643 a 0.20887651,0.21792629 0 0 1 0.22318,-0.2019 0.20887651,0.21792629 0 0 1 0.19352,0.23285 0.20887651,0.21792629 0 0 1 -0.22318,0.2019 0.20887651,0.21792629 0 0 1 -0.19352,-0.23285" /><path
       style="fill:#1a1a1a;stroke:none;stroke-width:0.00679736;stroke-dasharray:none"
       id="path20-4-7-7-8-2-7-2"
       sodipodi:type="arc"
       sodipodi:cx="148.03804"
       sodipodi:cy="204.56697"
       sodipodi:rx="0.20887651"
       sodipodi:ry="0.21792629"
       sodipodi:start="3.2126732"
       sodipodi:end="3.2126625"
       sodipodi:open="true"
       sodipodi:arc-type="arc"
       d="m 147.82969,204.55149 a 0.20887651,0.21792629 0 0 1 0.22318,-0.2019 0.20887651,0.21792629 0 0 1 0.19352,0.23286 0.20887651,0.21792629 0 0 1 -0.22318,0.2019 0.20887651,0.21792629 0 0 1 -0.19352,-0.23285" /><path
       style="fill:#1a1a1a;stroke:none;stroke-width:0.00679736;stroke-dasharray:none"
       id="path20-4-7-7-8-2-72-4"
       sodipodi:type="arc"
       sodipodi:cx="147.46783"
       sodipodi:cy="205.19527"
       sodipodi:rx="0.20887651"
       sodipodi:ry="0.21792629"
       sodipodi:start="3.2126732"
       sodipodi:end="3.2126625"
       sodipodi:open="true"
       sodipodi:arc-type="arc"
       d="m 147.25949,205.17979 a 0.20887651,0.21792629 0 0 1 0.22318,-0.2019 0.20887651,0.21792629 0 0 1 0.19351,0.23285 0.20887651,0.21792629 0 0 1 -0.22318,0.2019 0.20887651,0.21792629 0 0 1 -0.19351,-0.23285" /><path
       style="fill:#ffffff;stroke:#1a1a1a;stroke-width:0.087752;stroke-dasharray:none"
       id="path20-4-7-7-8-2-8-8"
       sodipodi:type="arc"
       sodipodi:cx="148.63205"
       sodipodi:cy="204.58624"
       sodipodi:rx="0.17130308"
       sodipodi:ry="0.17872377"
       sodipodi:start="3.2126732"
       sodipodi:end="3.2126625"
       sodipodi:open="true"
       sodipodi:arc-type="arc"
       d="m 148.46118,204.57355 a 0.17130308,0.17872377 0 0 1 0.18304,-0.16558 0.17130308,0.17872377 0 0 1 0.1587,0.19096 0.17130308,0.17872377 0 0 1 -0.18304,0.16559 0.17130308,0.17872377 0 0 1 -0.1587,-0.19097" /><path
       style="fill:#ffffff;stroke:#1a1a1a;stroke-width:0.087752;stroke-dasharray:none"
       id="path20-4-7-7-8-2-83-3"
       sodipodi:type="arc"
       sodipodi:cx="148.63205"
       sodipodi:cy="205.19527"
       sodipodi:rx="0.17130308"
       sodipodi:ry="0.17872377"
       sodipodi:start="3.2126732"
       sodipodi:end="3.2126625"
       sodipodi:open="true"
       sodipodi:arc-type="arc"
       d="m 148.46118,205.18257 a 0.17130308,0.17872377 0 0 1 0.18304,-0.16558 0.17130308,0.17872377 0 0 1 0.1587,0.19097 0.17130308,0.17872377 0 0 1 -0.18304,0.16558 0.17130308,0.17872377 0 0 1 -0.1587,-0.19096" /><path
       style="fill:#ffffff;stroke:#1a1a1a;stroke-width:0.087752;stroke-dasharray:none"
       id="path20-4-7-7-8-2-6-90"
       sodipodi:type="arc"
       sodipodi:cx="148.03804"
       sodipodi:cy="205.19527"
       sodipodi:rx="0.17130308"
       sodipodi:ry="0.17872377"
       sodipodi:start="3.2126732"
       sodipodi:end="3.2126625"
       sodipodi:open="true"
       sodipodi:arc-type="arc"
       d="m 147.86717,205.18257 a 0.17130308,0.17872377 0 0 1 0.18304,-0.16558 0.17130308,0.17872377 0 0 1 0.1587,0.19097 0.17130308,0.17872377 0 0 1 -0.18303,0.16558 0.17130308,0.17872377 0 0 1 -0.15871,-0.19096" /></g></svg>
